<svg width="62" height="62" viewBox="0 0 62 62" fill="none" xmlns="http://www.w3.org/2000/svg">
<path d="M45.9082 9.44727L56.0811 11.8672L55.124 22.7627L62 31L55.124 39.2373L56.082 50.1318L45.9082 52.5518L40.582 61.9707L40.5811 61.9697L31 57.6602L21.418 62L16.0918 52.582L5.91797 50.1611L6.87598 39.2373L0 31L6.87598 22.7334L5.91797 11.8096L16.0918 9.41797L21.418 0L31 4.31055L30.2295 6.02344L22.21 2.41602L17.3223 11.0586L7.93164 13.2656L8.81543 23.3398L2.44531 30.9971L8.81543 38.6289L7.93164 48.708L17.3242 50.9434L22.208 59.5791L30.9971 55.5986L39.79 59.5537L44.6758 50.9141L54.0674 48.6787L53.1846 38.6289L59.5518 31L53.1846 23.3711L54.0674 13.3203L45.4736 11.2754L44.6748 11.085L39.7871 2.41699L31.7705 6.02344L31 4.31055L40.582 0L45.9082 9.44727ZM31.7705 6.02344L31 6.37109L30.2295 6.02344L31 4.31055L31.7705 6.02344Z" fill="#F8F200"/>
<path d="M38.3093 23.1833C37.3853 22.2593 37.3787 21.342 38.2895 20.4312L41.2791 17.4416L45.6349 21.7974L44.546 22.8863L42.9125 21.2529L42.4275 21.738L42.6947 24.7375L41.2791 26.1531L41.0118 23.1536C40.1011 24.0643 39.2002 24.0742 38.3093 23.1833ZM41.2791 19.6195L39.3784 21.5202C39.1936 21.705 39.2002 21.8964 39.3982 22.0943C39.5632 22.2593 39.7381 22.2494 39.9229 22.0647L41.8236 20.1639L41.2791 19.6195Z" fill="#F8F200"/>
<path d="M40.6852 26.7471L39.5962 27.836L39.131 27.3707C38.9462 28.3079 38.5898 29.0405 38.0618 29.5684C36.9729 30.6574 35.8839 30.6574 34.795 29.5684L31.9736 26.7471L33.0626 25.6581L35.8839 28.4795C36.2403 28.8359 36.6033 28.8359 36.9729 28.4795C37.6064 27.6611 37.8044 26.7702 37.5668 25.8066L35.2405 23.4802L36.3294 22.3913L40.6852 26.7471Z" fill="#F8F200"/>
<path d="M29.991 28.7297L33.2578 31.9966L31.6244 33.63C31.2614 33.993 30.8984 33.993 30.5354 33.63L27.8131 30.9076L26.7241 31.9966L29.4465 34.7189C30.5354 35.8079 31.6244 35.8079 32.7133 34.7189L34.8912 32.5411L35.9801 33.63L37.1186 32.4916L34.9407 30.3137L34.3467 30.9076L31.0799 27.6408L29.991 28.7297Z" fill="#F8F200"/>
<path d="M30.7795 36.6533L29.2252 38.2075L25.8792 38.2867L25.3347 38.8312L26.9682 40.4646L25.8792 41.5535L21.5234 37.1978L22.6124 36.1088L24.2458 37.7422L24.7903 37.1978L24.8794 33.8418L26.4237 32.2975L26.3742 36.7028L30.7795 36.6533Z" fill="#F8F200"/>
<path d="M25.2848 42.1475L22.5624 39.4251C21.4735 38.3362 20.3845 38.3362 19.2956 39.4251L16.7712 41.9495L17.8602 43.0384L20.3845 40.514C20.7475 40.1511 21.1072 40.1478 21.4636 40.5041L21.4735 40.514L19.5728 42.4147C18.662 43.3255 18.6521 44.2264 19.5431 45.1173C20.467 46.0413 21.3844 46.0479 22.2952 45.1371L25.2848 42.1475ZM20.6518 44.0482C20.4736 43.87 20.4769 43.6885 20.6617 43.5037L22.5624 41.603L23.1069 42.1475L21.2062 44.0482C21.0214 44.233 20.8366 44.233 20.6518 44.0482Z" fill="#F8F200"/>
</svg>
